<svg width="8" height="8" viewBox="0 0 8 8" fill="none" xmlns="http://www.w3.org/2000/svg">
<g clip-path="url(#clip0_57_3734)">
<path d="M6.125 0H1.875C0.839466 0 0 0.839466 0 1.875V6.125C0 7.16053 0.839466 8 1.875 8H6.125C7.16053 8 8 7.16053 8 6.125V1.875C8 0.839466 7.16053 0 6.125 0Z" fill="#00005B"/>
<path d="M3.28615 4.87875H2.04615L1.79281 5.66541C1.78615 5.69541 1.7595 5.71541 1.7295 5.71209H1.10281C1.06615 5.71209 1.05615 5.69209 1.06615 5.65209L2.1395 2.57541C2.1495 2.54209 2.1595 2.51209 2.17281 2.47209C2.18615 2.40209 2.19281 2.32875 2.19281 2.25541C2.1895 2.23875 2.20281 2.22209 2.21946 2.21875H3.08281C3.10615 2.21875 3.12281 2.22875 3.12615 2.24541L4.34281 5.64541C4.35281 5.68209 4.34281 5.69875 4.3095 5.69875H3.61281C3.5895 5.70209 3.56615 5.68541 3.5595 5.66209L3.28615 4.86209V4.87875ZM2.2395 4.21541H3.08615C3.06615 4.14541 3.03946 4.06209 3.00946 3.97541C2.97946 3.88541 2.94946 3.78875 2.91946 3.68875C2.88615 3.58541 2.85615 3.48541 2.82281 3.38209C2.78946 3.27878 2.7595 3.18209 2.73281 3.08541C2.70615 2.99209 2.68281 2.90541 2.65946 2.82541H2.65281C2.62281 2.96875 2.58615 3.11209 2.53946 3.25541C2.48946 3.41541 2.43946 3.58209 2.38615 3.74875C2.34281 3.91875 2.28946 4.07541 2.2395 4.21541ZM6.30615 4.57875H5.2495C5.26281 4.68209 5.29615 4.78541 5.35281 4.87541C5.41281 4.96541 5.49615 5.03541 5.59615 5.07541C5.7295 5.13209 5.87615 5.16209 6.02281 5.15875C6.1395 5.15541 6.25615 5.14541 6.3695 5.12209C6.47115 5.10879 6.57079 5.08304 6.66615 5.04541C6.68281 5.03209 6.69281 5.03875 6.69281 5.07209V5.58209C6.69281 5.59541 6.6895 5.60875 6.68615 5.62209C6.6795 5.63209 6.67281 5.63875 6.66281 5.64541C6.55621 5.69223 6.44427 5.72582 6.3295 5.74541C6.17357 5.7754 6.0149 5.78881 5.85615 5.78541C5.60281 5.78541 5.3895 5.74541 5.21615 5.66875C5.05281 5.59875 4.9095 5.48875 4.79615 5.35209C4.69062 5.22367 4.61236 5.07508 4.56615 4.91541C4.5195 4.75875 4.49615 4.59541 4.49615 4.42875C4.49615 4.24875 4.52281 4.07209 4.5795 3.89875C4.63263 3.73185 4.71752 3.57678 4.8295 3.44209C4.9395 3.30875 5.07615 3.20209 5.23281 3.12541C5.3895 3.04875 5.57615 3.02209 5.7895 3.02209C5.96615 3.01875 6.14281 3.05209 6.30615 3.12541C6.44281 3.18541 6.56281 3.27541 6.65615 3.39209C6.74281 3.50541 6.81281 3.63209 6.85615 3.77209C6.8995 3.90541 6.9195 4.04209 6.9195 4.17875C6.9195 4.25875 6.91615 4.32875 6.91281 4.39209C6.90615 4.45541 6.90281 4.50209 6.8995 4.53209C6.89615 4.55541 6.87615 4.57541 6.85281 4.57541C6.83281 4.57541 6.79615 4.57875 6.74281 4.58209C6.6895 4.58875 6.62615 4.59209 6.5495 4.59209C6.47281 4.59209 6.39281 4.57875 6.30615 4.57875ZM5.2495 4.09209H5.95281C6.0395 4.09209 6.10281 4.09209 6.14281 4.08875C6.1695 4.08541 6.19615 4.07875 6.2195 4.06209V4.02875C6.2196 3.98682 6.21285 3.94515 6.1995 3.90541C6.1395 3.71875 5.96281 3.59209 5.76615 3.59875C5.67569 3.59368 5.58569 3.61491 5.50702 3.65986C5.42835 3.70482 5.36437 3.77158 5.32281 3.85209C5.28281 3.92875 5.2595 4.00875 5.2495 4.09209Z" fill="#9999FF"/>
</g>
<defs>
<clipPath id="clip0_57_3734">
<rect width="8" height="8" fill="white"/>
</clipPath>
</defs>
</svg>
