<svg width="8" height="8" viewBox="0 0 8 8" fill="none" xmlns="http://www.w3.org/2000/svg">
<g clip-path="url(#clip0_57_3701)">
<path d="M6.125 0H1.875C0.839466 0 0 0.839466 0 1.875V6.125C0 7.16053 0.839466 8 1.875 8H6.125C7.16053 8 8 7.16053 8 6.125V1.875C8 0.839466 7.16053 0 6.125 0Z" fill="#330000"/>
<path d="M3.86818 4.76039H2.62818L2.37484 5.54373C2.36818 5.57373 2.34153 5.59373 2.31153 5.59039H1.68484C1.64818 5.59039 1.63818 5.57039 1.64818 5.53039L2.72153 2.44039C2.73153 2.40707 2.74153 2.37039 2.75484 2.33039C2.76818 2.26039 2.77484 2.18707 2.77484 2.11373C2.77153 2.09707 2.78484 2.08039 2.80153 2.07707H3.66484C3.69153 2.07707 3.70484 2.08707 3.70818 2.10373L4.92484 5.53707C4.93484 5.57373 4.92484 5.59039 4.89153 5.59039H4.19484C4.17153 5.59373 4.14818 5.57707 4.14153 5.55373L3.86818 4.76039ZM2.82153 4.08373H3.66818C3.64818 4.01373 3.62153 3.93039 3.59153 3.84373C3.56153 3.75373 3.53153 3.65707 3.50153 3.55707C3.46818 3.45373 3.43818 3.35373 3.40484 3.25039C3.37153 3.14707 3.34153 3.05039 3.31484 2.95373C3.28818 2.86042 3.26484 2.77373 3.24153 2.69373H3.23484C3.20484 2.83707 3.16818 2.98042 3.12153 3.12373C3.07153 3.28373 3.02153 3.45039 2.96818 3.61707C2.92514 3.7744 2.87622 3.93006 2.82153 4.08373ZM5.66818 2.66039C5.55818 2.66373 5.45153 2.62039 5.37153 2.54373C5.29487 2.46039 5.25487 2.35039 5.25818 2.23707C5.25487 2.12373 5.29818 2.01707 5.37818 1.94039C5.45818 1.8637 5.56487 1.82373 5.67487 1.82373C5.80487 1.82373 5.90487 1.86373 5.97818 1.94039C6.05207 2.0212 6.09153 2.12763 6.08818 2.23707C6.09153 2.35039 6.05153 2.46039 5.97153 2.54373C5.89487 2.62373 5.78153 2.66707 5.66818 2.66039ZM5.29487 5.55373V2.98707C5.29487 2.95373 5.30818 2.94039 5.33818 2.94039H5.99818C6.02818 2.94039 6.04153 2.95707 6.04153 2.98707V5.55373C6.04153 5.59039 6.02818 5.60707 5.99818 5.60707H5.34487C5.31153 5.60707 5.29487 5.58707 5.29487 5.55373Z" fill="#FF9A00"/>
</g>
<defs>
<clipPath id="clip0_57_3701">
<rect width="8" height="8" fill="white"/>
</clipPath>
</defs>
</svg>
