<svg width="8" height="8" viewBox="0 0 8 8" fill="none" xmlns="http://www.w3.org/2000/svg">
<g clip-path="url(#clip0_57_3707)">
<path d="M6.125 0H1.875C0.839466 0 0 0.839466 0 1.875V6.125C0 7.16053 0.839466 8 1.875 8H6.125C7.16053 8 8 7.16053 8 6.125V1.875C8 0.839466 7.16053 0 6.125 0Z" fill="#242938"/>
<path d="M3.2991 4.29016C3.32332 3.85641 3.53469 3.47425 3.8536 3.20335C4.16635 2.93728 4.58732 2.77466 5.04663 2.77466C5.50547 2.77466 5.92644 2.93728 6.23941 3.20335C6.5581 3.47425 6.76947 3.85641 6.79391 4.28969C6.8181 4.73538 6.63982 5.14941 6.32707 5.45631C6.00816 5.7685 5.55457 5.96441 5.04663 5.96441C4.53869 5.96441 4.08419 5.7685 3.76551 5.45631C3.45251 5.14941 3.27469 4.73538 3.2991 4.29016Z" fill="white"/>
<path d="M4.14958 4.32914C4.16199 4.10658 4.27046 3.91048 4.43408 3.77148C4.59455 3.63495 4.81055 3.55151 5.04624 3.55151C5.28167 3.55151 5.49767 3.63495 5.65824 3.77148C5.82177 3.91048 5.93024 4.10658 5.94277 4.32889C5.95517 4.55758 5.8637 4.77001 5.70324 4.92751C5.53958 5.0877 5.30686 5.1882 5.04624 5.1882C4.78561 5.1882 4.55239 5.0877 4.38886 4.92751C4.2283 4.77001 4.13705 4.55758 4.14958 4.32914Z" fill="#265787"/>
<path d="M2.72156 4.77875C2.72309 4.86585 2.75072 5.0351 2.79219 5.16729C2.87938 5.44704 3.02719 5.70585 3.23284 5.93394C3.44394 6.16841 3.70385 6.35672 4.00406 6.49041C4.31963 6.63082 4.66153 6.70238 5.01669 6.70179C5.37125 6.70132 5.71316 6.62835 6.02872 6.48688C6.32894 6.35188 6.58863 6.16275 6.79934 5.92819C7.00491 5.69913 7.1525 5.43985 7.23988 5.1601C7.28345 5.02072 7.31123 4.87689 7.32269 4.73132C7.33359 4.5893 7.329 4.44652 7.309 4.3055C7.26988 4.02891 7.17463 3.76938 7.02797 3.53282C6.89388 3.31544 6.72097 3.12513 6.51541 2.96494L6.51588 2.96457L4.44131 1.36404C4.43944 1.3626 4.43794 1.36107 4.43594 1.35979C4.29981 1.25479 4.07094 1.25516 3.92125 1.36038C3.76991 1.46679 3.75259 1.64272 3.88728 1.75372L3.88669 1.75432L4.75197 2.46132L2.11469 2.46413H2.11119C1.89319 2.46438 1.68366 2.60807 1.64219 2.78969C1.59956 2.97469 1.74759 3.12816 1.97425 3.129L1.97391 3.12982L3.31063 3.12722L0.925314 4.96694C0.922282 4.96919 0.919001 4.97154 0.916189 4.97379C0.691189 5.14691 0.618439 5.43479 0.760157 5.61697C0.904001 5.80225 1.20985 5.8026 1.43719 5.61804L2.73903 4.54747C2.73903 4.54747 2.72003 4.692 2.72156 4.77875ZM6.06678 5.26272C5.79856 5.53732 5.42303 5.69304 5.01669 5.69385C4.60975 5.69457 4.23422 5.54025 3.966 5.26613C3.83494 5.13254 3.73863 4.97885 3.67925 4.81513C3.6208 4.65394 3.59834 4.48192 3.61344 4.31113C3.62759 4.14272 3.6775 3.98207 3.75716 3.83672C3.83541 3.69382 3.94316 3.56472 4.07622 3.4555C4.33697 3.242 4.66891 3.12641 5.01609 3.12594C5.36363 3.12547 5.69534 3.23997 5.95634 3.45279C6.08916 3.56154 6.19681 3.69019 6.27506 3.83282C6.35581 3.97905 6.40496 4.14061 6.41934 4.30704C6.43421 4.47772 6.41166 4.64959 6.35328 4.81066C6.29378 4.97485 6.19784 5.12854 6.06678 5.26272Z" fill="#EA7600"/>
</g>
<defs>
<clipPath id="clip0_57_3707">
<rect width="8" height="8" fill="white"/>
</clipPath>
</defs>
</svg>
