<svg width="8" height="8" viewBox="0 0 8 8" fill="none" xmlns="http://www.w3.org/2000/svg">
<g clip-path="url(#clip0_57_3720)">
<path d="M6.125 0H1.875C0.839466 0 0 0.839466 0 1.875V6.125C0 7.16053 0.839466 8 1.875 8H6.125C7.16053 8 8 7.16053 8 6.125V1.875C8 0.839466 7.16053 0 6.125 0Z" fill="#242938"/>
<mask id="mask0_57_3720" style="mask-type:luminance" maskUnits="userSpaceOnUse" x="1" y="0" width="6" height="8">
<path d="M1.90625 0.875H6.07375V7.125H1.90625V0.875Z" fill="white"/>
</mask>
<g mask="url(#mask0_57_3720)">
<path d="M2.94794 7.12509C3.52294 7.12509 3.98959 6.65844 3.98959 6.08344V5.04175H2.94794C2.37294 5.04175 1.90625 5.50844 1.90625 6.08344C1.90625 6.65844 2.37294 7.12509 2.94794 7.12509Z" fill="#0ACF83"/>
<path d="M1.90625 3.99991C1.90625 3.42491 2.37294 2.95825 2.94794 2.95825H3.98959V5.04156H2.94794C2.37294 5.04156 1.90625 4.57491 1.90625 3.99991Z" fill="#A259FF"/>
<path d="M1.90625 1.91666C1.90625 1.34166 2.37294 0.875 2.94794 0.875H3.98959V2.95834H2.94794C2.37294 2.95834 1.90625 2.49166 1.90625 1.91666Z" fill="#F24E1E"/>
<path d="M3.98828 0.875H5.02994C5.60494 0.875 6.07162 1.34166 6.07162 1.91666C6.07162 2.49166 5.60494 2.95834 5.02994 2.95834H3.98828V0.875Z" fill="#FF7262"/>
<path d="M6.07162 3.99991C6.07162 4.57491 5.60494 5.04156 5.02994 5.04156C4.45494 5.04156 3.98828 4.57491 3.98828 3.99991C3.98828 3.42491 4.45494 2.95825 5.02994 2.95825C5.60494 2.95825 6.07162 3.42491 6.07162 3.99991Z" fill="#1ABCFE"/>
</g>
</g>
<defs>
<clipPath id="clip0_57_3720">
<rect width="8" height="8" fill="white"/>
</clipPath>
</defs>
</svg>
