<svg width="8" height="8" viewBox="0 0 8 8" fill="none" xmlns="http://www.w3.org/2000/svg">
<g clip-path="url(#clip0_57_3715)">
<path d="M1.41669 0.100098H6.58331C7.36669 0.100098 8 0.73341 8 1.51679V6.48341C8 7.26679 7.36669 7.9001 6.58331 7.9001H1.41669C0.633312 7.9001 0 7.26679 0 6.48341V1.51679C0 0.73341 0.633312 0.100098 1.41669 0.100098Z" fill="#001E36"/>
<path d="M2.86747 2.08325C2.76747 2.08325 2.66747 2.08325 2.56416 2.08663C2.46078 2.08994 2.36409 2.08994 2.27409 2.09331C2.18409 2.09663 2.10078 2.09663 2.02078 2.09994C1.94409 2.10325 1.89078 2.10325 1.83409 2.10325C1.81078 2.10325 1.80078 2.11656 1.80078 2.13994V5.56994C1.80078 5.59994 1.81409 5.61331 1.84078 5.61331H2.48747C2.51078 5.60994 2.52747 5.58994 2.52409 5.56663V4.49663C2.58741 4.49663 2.63409 4.49663 2.66747 4.49994C2.70078 4.50325 2.75409 4.50325 2.83409 4.50325C3.10747 4.50325 3.35747 4.47325 3.58409 4.38994C3.80078 4.30994 3.98747 4.16994 4.12078 3.98325C4.25411 3.79659 4.32078 3.55992 4.32078 3.27325C4.32078 3.12325 4.29416 2.97994 4.24416 2.83994C4.19118 2.69731 4.10818 2.56772 4.00078 2.45994C3.87402 2.33679 3.72143 2.24341 3.55409 2.18656C3.36741 2.11656 3.14078 2.08325 2.86747 2.08325ZM2.94184 2.73981C3.06059 2.74206 3.17622 2.76281 3.28409 2.80656C3.38078 2.84325 3.46078 2.90994 3.51747 2.99656C3.57063 3.08622 3.59723 3.18913 3.59416 3.29331C3.59416 3.43994 3.56078 3.55331 3.49078 3.63663C3.41741 3.71994 3.32409 3.78331 3.21747 3.81331C3.09409 3.85331 2.96409 3.87325 2.83409 3.87325H2.65741C2.61741 3.87325 2.57416 3.86994 2.52747 3.86663V2.74663C2.55078 2.74325 2.59747 2.73994 2.66416 2.74331C2.72747 2.73994 2.80409 2.73994 2.89078 2.73994C2.90786 2.73952 2.92489 2.73948 2.94184 2.73981ZM5.73747 2.91C5.50078 2.91 5.30409 2.94663 5.14747 3.02663C5.00416 3.09331 4.88078 3.19994 4.79747 3.33325C4.72416 3.45663 4.68409 3.59325 4.68409 3.73663C4.68124 3.85455 4.70759 3.97135 4.76078 4.07663C4.82312 4.18873 4.90968 4.28552 5.01416 4.35994C5.16079 4.46023 5.31991 4.54092 5.48747 4.59994C5.65078 4.66325 5.76078 4.71325 5.81416 4.75656C5.86747 4.79994 5.89416 4.84325 5.89416 4.88994C5.89416 4.94994 5.85747 5.00663 5.80416 5.02994C5.74416 5.05994 5.65416 5.07663 5.52747 5.07663C5.39416 5.07663 5.26078 5.05994 5.13409 5.02663C4.98863 4.99414 4.84916 4.93903 4.72078 4.86331C4.71078 4.85663 4.70078 4.85331 4.69078 4.86C4.68078 4.86663 4.67747 4.87994 4.67747 4.88994V5.46994C4.67416 5.49663 4.69078 5.51994 4.71416 5.53325C4.82225 5.58375 4.93659 5.61963 5.05416 5.63994C5.20416 5.66994 5.35409 5.68325 5.50741 5.68325C5.74741 5.68325 5.94747 5.64663 6.11078 5.57663C6.26078 5.51663 6.39078 5.41331 6.48409 5.27994C6.57149 5.14882 6.61684 4.99418 6.61409 4.83663C6.61738 4.71761 6.59105 4.59964 6.53747 4.49331C6.47409 4.37994 6.38409 4.28663 6.27409 4.21663C6.11317 4.11557 5.94087 4.03388 5.76078 3.97325C5.68036 3.93997 5.60139 3.90327 5.52409 3.86325C5.48078 3.83994 5.44078 3.80994 5.41078 3.77325C5.39078 3.74656 5.37747 3.71663 5.37747 3.68663C5.37747 3.65663 5.38747 3.62331 5.40409 3.59663C5.42747 3.56331 5.46409 3.53994 5.50741 3.52994C5.57078 3.51331 5.64078 3.50325 5.70741 3.50656C5.83409 3.50656 5.95741 3.52325 6.08078 3.54994C6.19416 3.57325 6.30078 3.60994 6.40078 3.66331C6.41409 3.66994 6.43078 3.66994 6.46078 3.66331C6.46599 3.65945 6.47022 3.65442 6.47311 3.64862C6.47601 3.64282 6.47751 3.63642 6.47747 3.62994V3.08663C6.47747 3.07325 6.47409 3.05994 6.47078 3.04663C6.46409 3.03331 6.45078 3.01994 6.43747 3.01663C6.34553 2.97905 6.2492 2.95328 6.15078 2.93994C6.01391 2.92001 5.87578 2.91005 5.73747 2.91Z" fill="#31A8FF"/>
</g>
<defs>
<clipPath id="clip0_57_3715">
<rect width="8" height="8" fill="white"/>
</clipPath>
</defs>
</svg>
