<svg width="40" height="40" viewBox="0 0 40 40" fill="none" xmlns="http://www.w3.org/2000/svg">
<path fill-rule="evenodd" clip-rule="evenodd" d="M25.6952 9.4051C25.4654 9.03783 25.1267 8.75136 24.7264 8.58556C24.3261 8.41977 23.8841 8.3829 23.4619 8.4801L20.4652 9.16843C20.1581 9.23902 19.839 9.23902 19.5319 9.16843L16.5352 8.4801C16.113 8.3829 15.671 8.41977 15.2707 8.58556C14.8704 8.75136 14.5317 9.03783 14.3019 9.4051L12.6685 12.0118C12.5019 12.2784 12.2769 12.5034 12.0102 12.6718L9.40354 14.3051C9.03691 14.5347 8.75086 14.8728 8.5851 15.2725C8.41934 15.6721 8.3821 16.1134 8.47854 16.5351L9.16688 19.5351C9.23721 19.8417 9.23721 20.1602 9.16688 20.4668L8.47854 23.4651C8.38172 23.8871 8.41878 24.3287 8.58455 24.7287C8.75033 25.1286 9.03659 25.467 9.40354 25.6968L12.0102 27.3301C12.2769 27.4968 12.5019 27.7218 12.6702 27.9884L14.3035 30.5951C14.7735 31.3468 15.6702 31.7184 16.5352 31.5201L19.5319 30.8318C19.839 30.7612 20.1581 30.7612 20.4652 30.8318L23.4635 31.5201C23.8855 31.6169 24.3272 31.5799 24.7271 31.4141C25.1271 31.2483 25.4655 30.9621 25.6952 30.5951L27.3285 27.9884C27.4952 27.7218 27.7202 27.4968 27.9869 27.3301L30.5952 25.6968C30.9622 25.4667 31.2483 25.1279 31.4138 24.7277C31.5793 24.3274 31.6159 23.8855 31.5185 23.4634L30.8319 20.4668C30.7613 20.1597 30.7613 19.8405 30.8319 19.5334L31.5202 16.5351C31.6172 16.1133 31.5804 15.6718 31.4149 15.2718C31.2494 14.8719 30.9635 14.5334 30.5969 14.3034L27.9885 12.6701C27.7222 12.5031 27.4972 12.2781 27.3302 12.0118L25.6952 9.4051ZM24.8569 16.2834C24.96 16.0939 24.9855 15.8717 24.9281 15.6637C24.8707 15.4557 24.7349 15.2781 24.5492 15.1682C24.3636 15.0583 24.1425 15.0247 23.9325 15.0745C23.7226 15.1242 23.5401 15.2535 23.4235 15.4351L19.0652 22.8118L16.4335 20.2918C16.3555 20.2116 16.2621 20.148 16.1589 20.1047C16.0557 20.0614 15.9448 20.0394 15.8329 20.0399C15.721 20.0403 15.6104 20.0634 15.5076 20.1075C15.4047 20.1517 15.3119 20.2162 15.2345 20.297C15.1571 20.3778 15.0968 20.4734 15.0572 20.5781C15.0176 20.6827 14.9994 20.7943 15.0039 20.9061C15.0083 21.0179 15.0352 21.1277 15.0829 21.2289C15.1307 21.3301 15.1984 21.4206 15.2819 21.4951L18.6719 24.7434C18.7626 24.8302 18.8718 24.8953 18.9912 24.934C19.1106 24.9726 19.2373 24.9838 19.3616 24.9667C19.486 24.9495 19.6048 24.9045 19.7094 24.8349C19.8139 24.7654 19.9013 24.6732 19.9652 24.5651L24.8569 16.2834Z" fill="url(#paint0_linear_57_3662)"/>
<defs>
<linearGradient id="paint0_linear_57_3662" x1="25.0013" y1="8.33343" x2="8.33463" y2="65.0001" gradientUnits="userSpaceOnUse">
<stop stop-color="#0EDAFF"/>
<stop offset="1" stop-color="white"/>
</linearGradient>
</defs>
</svg>
