<svg xmlns="http://www.w3.org/2000/svg" xmlns:xlink="http://www.w3.org/1999/xlink">
    <symbol id="burger" viewBox="0 0 48 48" fill="none">
        <path fill="#fff" d="M27 30a1 1 0 1 1 0 2h-9a1 1 0 1 1 0-2h9Zm5-7a1 1 0 1 1 0 2H16a1 1 0 1 1 0-2h16Zm-2-7a1 1 0 1 1 0 2h-9a1 1 0 1 1 0-2h9Z"/>
    </symbol>
    <symbol id="expand" viewBox="0 0 16 16" fill="none">
        <path fill="#fff" d="M.889 15.111H0c0 .491.398.889.889.889v-.889Zm5.073-3.816a.889.889 0 0 0-1.257-1.257l1.257 1.257ZM.889 9.778a.889.889 0 0 0-.889.889v4.444h1.778v-4.444a.889.889 0 0 0-.89-.89Zm0 6.222h4.444a.889.889 0 0 0 0-1.778H.89V16Zm.628-.26 4.445-4.445-1.257-1.257L.26 14.483l1.257 1.257ZM15.111.889H16A.889.889 0 0 0 15.111 0v.889Zm-5.073 3.816a.889.889 0 0 0 1.257 1.257l-1.257-1.257Zm5.073 1.517A.889.889 0 0 0 16 5.333V.89h-1.778v4.444c0 .491.398.89.89.89Zm0-6.222h-4.444a.889.889 0 1 0 0 1.778h4.444V0Zm-.628.26-4.445 4.445 1.257 1.257 4.445-4.445L14.483.26Z"/>
    </symbol>
    <symbol id="finance" viewBox="0 0 22 22" fill="none">
        <path fill="#fff" d="M16.5 6.318a.1.1 0 0 0 .1.099h2.65a.916.916 0 0 1 .917.916v11a.916.916 0 0 1-.917.917H2.75a.917.917 0 0 1-.917-.917V3.667a.917.917 0 0 1 .917-.917h10.183A3.568 3.568 0 0 1 16.5 6.318ZM4.667 8.25a1 1 0 0 0-1 1v7.167a1 1 0 0 0 1 1h12.666a1 1 0 0 0 1-1V9.25a1 1 0 0 0-1-1H4.668Zm-.083-3.667a.917.917 0 1 0 0 1.834h9.166a.917.917 0 0 0 0-1.834H4.584Zm9.166 8.25c0-.506.41-.916.917-.916h.917a.917.917 0 1 1 0 1.833h-.917a.917.917 0 0 1-.917-.917Z"/>
    </symbol>  
    <symbol id="arrowLeft" viewBox="0 0 45 45" fill="none">
        <path fill="#B6B6B6" d="M20.075 33.362a1.875 1.875 0 1 1-2.652 2.651L6.56 25.152a3.75 3.75 0 0 1 0-5.303L17.423 8.987a1.875 1.875 0 0 1 2.652 2.651l-8.987 8.987h26.41a1.875 1.875 0 1 1 0 3.75h-26.41l8.987 8.987Z"/>
    </symbol>
    <symbol id="arrowRight" viewBox="0 0 25 24" fill="none">
        <path fill="#fff" d="M16.672 13.028H5.529a1.029 1.029 0 1 1 0-2.056h11.143l-4.677-4.81a1.014 1.014 0 1 1 1.454-1.414l6.413 6.596a.941.941 0 0 1 0 1.312l-6.413 6.596a1.014 1.014 0 0 1-1.454-1.413l4.677-4.81Z"/>
    </symbol>
    <symbol id="logo" viewBox="0 0 287 86" fill="none">
        <path fill="#fff" d="M51.213 84.305h3.936c1.62 0 2.893-.192 3.82-.578 1.002-.386 1.697-.85 2.083-1.39a3.386 3.386 0 0 0 .694-2.083 6.913 6.913 0 0 0-.115-2.199 75.191 75.191 0 0 1-1.158-4.167c-.309-1.543-.772-3.164-1.389-4.862a20.12 20.12 0 0 0-4.399-7.408c-2.006-2.16-4.861-3.24-8.565-3.24-2.315 0-4.476.694-6.482 2.083-1.93 1.312-3.781 3.01-5.556 5.093a78.584 78.584 0 0 0-5.209 6.598 72.515 72.515 0 0 1-5.209 6.597c-1.774 2.007-3.665 3.705-5.671 5.094-2.007 1.311-4.245 1.967-6.714 1.967-3.01 0-5.517-.926-7.524-2.778C1.75 81.18.745 78.21.745 74.12c0-2.392.348-5.015 1.043-7.87a113.53 113.53 0 0 1 2.893-9.26 229.95 229.95 0 0 1 3.936-10.42 369.987 369.987 0 0 0 4.514-11.112 1859.27 1859.27 0 0 0 2.43-6.25c.927-2.393 1.892-4.862 2.895-7.409 1.003-2.546 1.967-5.016 2.893-7.408a542.835 542.835 0 0 0 2.547-6.366c.386-1.08.656-1.89.81-2.43a7.612 7.612 0 0 0 .232-1.853c0-1.389-.772-2.083-2.315-2.083h-8.566c-.309 0-.463-.116-.463-.348v-.115c0-.155.154-.232.463-.232h46.3c.232 0 .348.077.348.232v.115c0 .232-.116.348-.348.348h-6.945c-1.697 0-2.778.54-3.24 1.62-.464 1.08-.464 2.43 0 4.051a4003.525 4003.525 0 0 0 9.838 35.883 893.987 893.987 0 0 0 10.765 35.651c.617 1.93 1.389 3.318 2.315 4.167 1.003.85 2.7 1.273 5.093 1.273h3.588c.232 0 .347.078.347.232v.231c0 .155-.115.232-.347.232H51.213c-.154 0-.232-.077-.232-.231v-.232c0-.154.078-.232.232-.232Zm-30.79-46.994h-6.25c-.617 1.62-1.39 3.588-2.315 5.903a246.128 246.128 0 0 0-2.778 7.292 143.801 143.801 0 0 0-2.315 7.64c-.618 2.47-.926 4.669-.926 6.598 0 3.163.887 5.44 2.662 6.829 1.775 1.312 3.743 1.968 5.903 1.968 1.466 0 2.933-.348 4.399-1.042 1.466-.772 2.97-1.736 4.514-2.894a93.687 93.687 0 0 0 4.746-3.82c1.62-1.389 3.28-2.7 4.977-3.935V49.812c0-4.399-1.003-7.563-3.01-9.492-2.006-2.006-5.208-3.01-9.607-3.01Zm4.515-28.012c-.232.463-.695 1.582-1.39 3.357a175.255 175.255 0 0 1-2.43 6.482 551.582 551.582 0 0 0-3.241 8.45l-3.473 9.028h6.02c4.552 0 7.793-1.003 9.722-3.01 1.93-2.006 2.894-5.285 2.894-9.838V3.628a12.05 12.05 0 0 0-4.63 1.157c-1.389.694-2.546 2.2-3.472 4.514Zm28.937 41.092-1.852-6.483a164.528 164.528 0 0 0-1.736-6.597h-4.051c-4.553 0-7.794.964-9.723 2.894-1.852 1.929-2.778 5.131-2.778 9.607v11.575c2.006-1.312 4.012-2.392 6.019-3.241a14.754 14.754 0 0 1 6.25-1.39c1.775 0 3.164.194 4.167.58 1.08.308 2.007.463 2.778.463.386 0 .656-.039.81-.116.386-.232.618-.617.695-1.158a5.536 5.536 0 0 0 .116-1.967c0-.695-.077-1.428-.232-2.2a25.518 25.518 0 0 0-.463-1.967Zm-7.64-13.775h3.82c-1.543-5.556-2.97-10.687-4.282-15.395a1243.312 1243.312 0 0 0-3.241-11.459c-.54-1.852-1.466-3.318-2.778-4.398-1.312-1.08-3.319-1.66-6.02-1.737v20.14c0 4.4.965 7.64 2.895 9.724 2.006 2.084 5.208 3.125 9.607 3.125Zm45.376 48.767h-2.576v-20.45h2.576v16.44h.138l11.386-16.44h2.576v20.451h-2.576v-16.44h-.118l-11.406 16.44Zm.335-29.261h1.986c0 2.32 1.514 3.992 3.933 3.992 2.399 0 3.913-1.671 3.913-3.992h1.986c0 3.363-2.359 5.605-5.9 5.605-3.559 0-5.918-2.242-5.918-5.605Zm26.547 10.953h-5.368v6.667h4.995c2.792 0 4.326-1.22 4.326-3.442 0-2.045-1.416-3.225-3.953-3.225Zm-.177 8.79h-5.191v7.375h5.663c3.009 0 4.622-1.278 4.622-3.717 0-2.438-1.809-3.657-5.094-3.657Zm-7.767 9.519V64.931h8.259c3.835 0 6.175 1.947 6.175 5.132 0 2.242-1.495 4.15-3.579 4.543v.138c2.635.295 4.562 2.104 4.562 4.837 0 3.658-2.655 5.802-7.06 5.802h-8.357Zm25.84-1.908c3.579 0 6.391-2.537 6.391-5.781v-2.262l-6.057.413c-3.225.216-5.015 1.612-5.015 3.874 0 2.222 1.908 3.756 4.681 3.756Zm-.531 2.242c-4.032 0-6.785-2.419-6.785-5.998 0-3.5 2.616-5.624 7.335-5.939l6.372-.393v-1.77c0-2.95-1.868-4.72-5.054-4.72-3.009 0-4.936 1.475-5.388 3.953h-2.517c.294-3.658 3.303-6.253 7.964-6.253 4.66 0 7.591 2.615 7.591 6.784v14.001h-2.478V81.49h-.059c-1.141 2.537-3.933 4.228-6.981 4.228Zm21.002.019c-4.464 0-7.532-2.241-7.984-5.624h2.615c.472 2.046 2.36 3.442 5.369 3.442 3.205 0 5.132-1.554 5.132-3.894 0-2.596-1.868-3.795-5.211-3.795h-3.166v-2.144h3.166c2.93 0 4.523-1.258 4.523-3.48 0-2.026-1.514-3.442-4.385-3.442-2.871 0-4.7 1.416-5.093 3.422h-2.537c.492-3.304 3.245-5.605 7.61-5.605 4.445 0 6.962 2.163 6.962 5.447 0 2.223-1.534 4.052-3.697 4.523v.138c2.674.492 4.405 2.183 4.405 4.798 0 3.815-3.088 6.215-7.709 6.215Zm19.94-.019c-5.565 0-9.321-4.07-9.321-10.56 0-6.51 3.776-10.56 9.321-10.56 5.565 0 9.321 4.05 9.321 10.56 0 6.49-3.756 10.56-9.321 10.56Zm0-2.301c4.012 0 6.686-3.068 6.686-8.26 0-5.19-2.674-8.259-6.686-8.259-4.011 0-6.666 3.068-6.666 8.26 0 5.191 2.655 8.259 6.666 8.259Zm21.101-16.342h-5.369v6.667h4.995c2.793 0 4.327-1.22 4.327-3.442 0-2.045-1.416-3.225-3.953-3.225Zm-.177 8.79h-5.192v7.375h5.664c3.009 0 4.621-1.278 4.621-3.717 0-2.438-1.809-3.657-5.093-3.657Zm-7.768 9.519V64.931h8.259c3.835 0 6.175 1.947 6.175 5.132 0 2.242-1.494 4.15-3.579 4.543v.138c2.635.295 4.563 2.104 4.563 4.837 0 3.658-2.655 5.802-7.06 5.802h-8.358Zm35.889-14.376h-2.576c-.669-2.3-2.675-4.11-5.782-4.11-3.992 0-6.568 3.265-6.568 8.26 0 5.073 2.596 8.259 6.608 8.259 2.949 0 5.014-1.534 5.722-3.953h2.596c-.728 3.678-3.933 6.254-8.338 6.254-5.605 0-9.243-4.07-9.243-10.56 0-6.391 3.638-10.56 9.223-10.56 4.641 0 7.67 2.93 8.358 6.41Zm9.006 3.658 10.738 10.718h-3.422l-9.951-9.97h-.118v9.97h-2.576V64.931h2.576v9.183h.118l9.695-9.183h3.284l-10.344 9.734Zm16.204 10.717h-2.576v-20.45h2.576v16.44h.138l11.386-16.44h2.576v20.451h-2.576v-16.44h-.118l-11.406 16.44Zm21.514 0h-2.576v-20.45h2.576v16.44h.138l11.386-16.44h2.576v20.451h-2.576v-16.44h-.118l-11.406 16.44Zm.334-29.261h1.986c0 2.32 1.515 3.992 3.933 3.992 2.4 0 3.914-1.671 3.914-3.992h1.986c0 3.363-2.36 5.605-5.9 5.605-3.559 0-5.919-2.242-5.919-5.605Z"/>
    </symbol>
    
    <symbol id="search" viewBox="0 0 40 41" fill="none">
        <path fill="#fff" d="m26.031 25.46 4.283 4.283-1.415 1.415-4.282-4.283A8.96 8.96 0 0 1 19 28.844c-4.968 0-9-4.032-9-9s4.032-9 9-9 9 4.032 9 9a8.96 8.96 0 0 1-1.969 5.617Zm-2.006-.741A6.977 6.977 0 0 0 26 19.844c0-3.868-3.133-7-7-7-3.868 0-7 3.132-7 7 0 3.867 3.132 7 7 7a6.977 6.977 0 0 0 4.875-1.975l.15-.15Z"/>
    </symbol>
    <symbol id="logo2" viewBox="0 0 159 51" fill="none">
        <path fill="#fff" d="M29.639 49.777h2.311c.952 0 1.7-.113 2.243-.34.59-.226.997-.498 1.224-.816.272-.362.408-.77.408-1.223a4.062 4.062 0 0 0-.068-1.292 44.229 44.229 0 0 1-.68-2.447 19.689 19.689 0 0 0-.816-2.855 11.818 11.818 0 0 0-2.583-4.35c-1.178-1.27-2.855-1.904-5.03-1.904-1.36 0-2.629.408-3.807 1.223-1.133.77-2.22 1.768-3.263 2.991a46.156 46.156 0 0 0-3.06 3.875 42.61 42.61 0 0 1-3.058 3.875c-1.043 1.178-2.153 2.175-3.331 2.991-1.178.77-2.493 1.156-3.943 1.156-1.767 0-3.24-.544-4.419-1.632C.59 47.942 0 46.197 0 43.795c0-1.405.204-2.946.612-4.623a66.664 66.664 0 0 1 1.7-5.438c.68-1.949 1.45-3.988 2.31-6.118a217.79 217.79 0 0 0 2.652-6.526c.408-1.042.883-2.266 1.427-3.67.544-1.406 1.11-2.856 1.7-4.352a884.087 884.087 0 0 0 1.7-4.35 316.76 316.76 0 0 0 1.495-3.739c.226-.634.385-1.11.476-1.427a4.51 4.51 0 0 0 .136-1.088c0-.816-.454-1.224-1.36-1.224h-5.03c-.182 0-.272-.068-.272-.204V.968c0-.09.09-.136.272-.136h27.191c.136 0 .204.046.204.136v.068c0 .136-.068.204-.204.204H30.93c-.997 0-1.631.317-1.903.952-.272.634-.272 1.427 0 2.38 1.903 7.069 3.83 14.094 5.778 21.073a525.139 525.139 0 0 0 6.322 20.937c.363 1.133.816 1.949 1.36 2.447.589.499 1.586.748 2.99.748h2.108c.136 0 .204.045.204.136v.136c0 .09-.068.136-.204.136H29.64c-.09 0-.136-.045-.136-.136v-.136c0-.09.045-.136.136-.136Zm-18.083-27.6h-3.67c-.363.952-.816 2.108-1.36 3.468a144.553 144.553 0 0 0-1.632 4.282 84.466 84.466 0 0 0-1.36 4.487c-.362 1.45-.543 2.742-.543 3.875 0 1.858.521 3.195 1.564 4.01 1.042.77 2.198 1.156 3.466 1.156.862 0 1.723-.204 2.584-.612a19.877 19.877 0 0 0 2.65-1.7 54.95 54.95 0 0 0 2.788-2.243 46.666 46.666 0 0 1 2.923-2.31v-7.07c0-2.584-.59-4.442-1.767-5.575-1.179-1.178-3.06-1.767-5.643-1.767Zm2.652-16.45c-.136.272-.408.929-.816 1.971a102.981 102.981 0 0 1-1.428 3.807 329.452 329.452 0 0 0-1.903 4.963L8.02 21.77h3.535c2.674 0 4.578-.59 5.71-1.768 1.134-1.178 1.7-3.104 1.7-5.778V2.396a7.078 7.078 0 0 0-2.72.68c-.815.408-1.495 1.291-2.038 2.65Zm16.994 24.132-1.087-3.807a96.835 96.835 0 0 0-1.02-3.874h-2.38c-2.673 0-4.577.566-5.71 1.7-1.087 1.132-1.631 3.013-1.631 5.641v6.798a22.476 22.476 0 0 1 3.535-1.903 8.665 8.665 0 0 1 3.67-.816c1.043 0 1.859.113 2.448.34.634.181 1.178.272 1.631.272.227 0 .386-.023.476-.068.227-.136.363-.363.408-.68.09-.362.113-.748.068-1.156 0-.407-.045-.838-.136-1.291-.09-.453-.181-.838-.272-1.156Zm-4.486-8.09h2.243l-2.515-9.04a730.258 730.258 0 0 0-1.904-6.73c-.317-1.088-.86-1.949-1.631-2.583-.77-.635-1.949-.975-3.535-1.02v11.828c0 2.583.566 4.487 1.7 5.71 1.178 1.224 3.058 1.836 5.642 1.836Zm17.43-4.584h-1.513V5.174h1.513v9.655h.081l6.687-9.655h1.513v12.01h-1.513V7.53h-.07l-6.698 9.655ZM44.343 0h1.166c0 1.363.89 2.344 2.31 2.344 1.409 0 2.298-.981 2.298-2.344h1.167c0 1.975-1.386 3.291-3.465 3.291-2.09 0-3.476-1.316-3.476-3.291Zm15.591 6.433H56.78v3.915h2.933c1.64 0 2.541-.716 2.541-2.021 0-1.201-.831-1.894-2.321-1.894Zm-.104 5.162h-3.05v4.331h3.327c1.767 0 2.714-.75 2.714-2.183 0-1.432-1.063-2.148-2.991-2.148Zm-4.562 5.59V5.174h4.85c2.253 0 3.627 1.143 3.627 3.014 0 1.317-.878 2.437-2.102 2.668v.08c1.548.174 2.68 1.237 2.68 2.842 0 2.148-1.56 3.407-4.147 3.407h-4.908Zm15.175-1.12c2.102 0 3.754-1.49 3.754-3.396v-1.328l-3.557.243c-1.894.127-2.945.947-2.945 2.275 0 1.305 1.12 2.206 2.748 2.206Zm-.311 1.316c-2.368 0-3.985-1.42-3.985-3.522 0-2.056 1.536-3.303 4.308-3.488l3.742-.231V9.1c0-1.732-1.097-2.771-2.968-2.771-1.767 0-2.9.866-3.165 2.321h-1.478c.173-2.148 1.94-3.672 4.677-3.672 2.737 0 4.458 1.536 4.458 3.984v8.223h-1.455v-2.287h-.035c-.67 1.49-2.31 2.483-4.1 2.483Zm12.334.012c-2.622 0-4.423-1.317-4.689-3.303h1.536c.277 1.2 1.386 2.02 3.153 2.02 1.882 0 3.014-.912 3.014-2.286 0-1.524-1.097-2.229-3.06-2.229h-1.86v-1.259h1.86c1.72 0 2.656-.739 2.656-2.044 0-1.19-.89-2.02-2.575-2.02-1.687 0-2.76.83-2.992 2.009h-1.49c.29-1.94 1.906-3.292 4.47-3.292 2.61 0 4.088 1.27 4.088 3.2 0 1.304-.9 2.378-2.17 2.655v.081c1.57.29 2.586 1.282 2.586 2.818 0 2.24-1.813 3.65-4.527 3.65Zm11.711-.012c-3.269 0-5.475-2.39-5.475-6.202 0-3.822 2.218-6.201 5.475-6.201 3.268 0 5.474 2.379 5.474 6.201 0 3.812-2.206 6.202-5.474 6.202Zm0-1.351c2.356 0 3.926-1.802 3.926-4.85 0-3.05-1.57-4.851-3.926-4.851s-3.916 1.801-3.916 4.85c0 3.05 1.56 4.851 3.916 4.851Zm12.392-9.597h-3.153v3.915h2.933c1.64 0 2.541-.716 2.541-2.021 0-1.201-.832-1.894-2.321-1.894Zm-.104 5.162h-3.049v4.331h3.326c1.767 0 2.714-.75 2.714-2.183 0-1.432-1.063-2.148-2.991-2.148Zm-4.562 5.59V5.174h4.85c2.252 0 3.627 1.143 3.627 3.014 0 1.317-.878 2.437-2.102 2.668v.08c1.547.174 2.679 1.237 2.679 2.842 0 2.148-1.559 3.407-4.146 3.407h-4.908Zm21.077-8.442h-1.513c-.393-1.352-1.571-2.414-3.396-2.414-2.344 0-3.857 1.917-3.857 4.85 0 2.98 1.525 4.851 3.881 4.851 1.732 0 2.945-.9 3.36-2.321h1.525c-.428 2.16-2.31 3.672-4.897 3.672-3.291 0-5.428-2.39-5.428-6.202 0-3.753 2.137-6.201 5.416-6.201 2.726 0 4.505 1.72 4.909 3.765Zm5.289 2.147 6.306 6.295h-2.01l-5.843-5.855h-.07v5.855h-1.513V5.174h1.513v5.393h.07l5.693-5.393h1.929l-6.075 5.717Zm9.517 6.295h-1.513V5.174h1.513v9.655h.08l6.687-9.655h1.513v12.01h-1.513V7.53h-.069l-6.698 9.655Zm12.634 0h-1.513V5.174h1.513v9.655h.081l6.687-9.655h1.513v12.01h-1.513V7.53h-.069l-6.699 9.655ZM150.617 0h1.166c0 1.363.889 2.344 2.31 2.344 1.409 0 2.298-.981 2.298-2.344h1.166c0 1.975-1.385 3.291-3.464 3.291-2.091 0-3.476-1.316-3.476-3.291Z"/>
    </symbol>
    <symbol id="ai" viewBox="0 0 24 25" fill="none">
        <path fill="#fff" d="M15 5.566a3.25 3.25 0 0 0 3.25-3.25h1.5A3.25 3.25 0 0 0 23 5.566v1.5a3.25 3.25 0 0 0-3.25 3.25h-1.5A3.25 3.25 0 0 0 15 7.066v-1.5ZM4 7.316a2 2 0 0 1 2-2h7v-2H6a4 4 0 0 0-4 4v10a4 4 0 0 0 4 4h12a4 4 0 0 0 4-4v-5h-2v5a2 2 0 0 1-2 2H6a2 2 0 0 1-2-2v-10Z"/>
    </symbol>
    <symbol id="like" viewBox="0 0 35 35" fill="none">
            <rect width="35" height="35" fill="#fff" fill-opacity=".15" rx="17.5"/>
            <path fill="#fff" d="M21.325 10C23.907 10 26 12.027 26 14.865c0 5.676-6.375 8.919-8.5 10.135C15.375 23.784 9 20.54 9 14.865 9 12.027 11.125 10 13.675 10c1.581 0 2.975.81 3.825 1.622.85-.811 2.244-1.622 3.825-1.622Zm-3.031 12.652c.749-.45 1.424-.9 2.057-1.38 2.534-1.92 3.949-4.02 3.949-6.407 0-1.914-1.306-3.243-2.975-3.243-.915 0-1.904.462-2.623 1.146L17.5 13.915l-1.202-1.147c-.719-.684-1.708-1.146-2.623-1.146-1.649 0-2.975 1.342-2.975 3.243 0 2.387 1.416 4.486 3.948 6.408.633.48 1.31.928 2.058 1.378.254.153.506.3.794.464.288-.164.54-.31.794-.463Z"/>
    </symbol>
</svg>