<svg width="173" height="173" viewBox="0 0 173 173" fill="none" xmlns="http://www.w3.org/2000/svg">
<g clip-path="url(#clip0_62_7766)">
<rect width="173" height="173" rx="34.6" fill="black"/>
<path d="M103.244 156.867H110.109C112.936 156.867 115.158 156.53 116.773 155.857C118.523 155.184 119.735 154.376 120.408 153.434C121.216 152.357 121.619 151.145 121.619 149.799C121.754 148.453 121.687 147.174 121.417 145.962C120.744 143.808 120.071 141.385 119.398 138.693C118.86 136 118.052 133.173 116.975 130.211C115.359 125.365 112.802 121.057 109.302 117.288C105.801 113.518 100.82 111.634 94.3585 111.634C90.3199 111.634 86.5505 112.845 83.0503 115.268C79.6848 117.557 76.4539 120.519 73.3576 124.154C70.2613 127.654 67.2323 131.49 64.2706 135.664C61.4436 139.702 58.4146 143.539 55.1837 147.174C52.0874 150.674 48.7892 153.636 45.289 156.059C41.7888 158.347 37.8848 159.492 33.5769 159.492C28.3267 159.492 23.9515 157.876 20.4513 154.645C16.9512 151.414 15.2011 146.231 15.2011 139.096C15.2011 134.923 15.8069 130.346 17.0185 125.365C18.3647 120.249 20.0475 114.865 22.0668 109.211C24.0861 103.422 26.3747 97.3638 28.9325 91.0366C31.6249 84.7094 34.25 78.2476 36.8078 71.6511C38.0194 68.5548 39.433 64.9201 41.0484 60.7468C42.6639 56.5735 44.3466 52.2656 46.0967 47.8231C47.8468 43.3806 49.5296 39.0727 51.145 34.8995C52.8951 30.5916 54.3759 26.8895 55.5875 23.7932C56.2606 21.9085 56.7318 20.495 57.0011 19.5526C57.2703 18.4756 57.4049 17.3987 57.4049 16.3217C57.4049 13.8985 56.0587 12.6869 53.3663 12.6869H38.4233C37.8848 12.6869 37.6156 12.485 37.6156 12.0811V11.8792C37.6156 11.61 37.8848 11.4753 38.4233 11.4753H119.196C119.6 11.4753 119.802 11.61 119.802 11.8792V12.0811C119.802 12.485 119.6 12.6869 119.196 12.6869H107.08C104.119 12.6869 102.234 13.6293 101.426 15.514C100.618 17.3987 100.618 19.7545 101.426 22.5816C107.08 43.5825 112.802 64.4489 118.59 85.1806C124.379 105.912 130.639 126.644 137.37 147.376C138.447 150.741 139.793 153.164 141.409 154.645C143.159 156.126 146.12 156.867 150.294 156.867H156.554C156.958 156.867 157.159 157.001 157.159 157.27V157.674C157.159 157.944 156.958 158.078 156.554 158.078H103.244C102.974 158.078 102.84 157.944 102.84 157.674V157.27C102.84 157.001 102.974 156.867 103.244 156.867ZM49.5296 74.882H38.6252C37.5483 77.7091 36.202 81.1419 34.5866 85.1806C32.9711 89.2192 31.3557 93.4598 29.7402 97.9023C28.2594 102.345 26.9132 106.787 25.7016 111.23C24.6246 115.538 24.0861 119.374 24.0861 122.74C24.0861 128.259 25.6343 132.231 28.7306 134.654C31.8269 136.943 35.2597 138.087 39.0291 138.087C41.5869 138.087 44.1447 137.481 46.7025 136.269C49.2603 134.923 51.8855 133.24 54.5779 131.221C57.2703 129.202 60.0301 126.981 62.8571 124.557C65.6842 122.134 68.5785 119.846 71.5402 117.692V96.6907C71.5402 89.0173 69.7901 83.4978 66.2899 80.1323C62.7898 76.6321 57.203 74.882 49.5296 74.882ZM57.4049 26.0144C57.0011 26.8222 56.1933 28.7742 54.9817 31.8705C53.9048 34.9668 52.4912 38.7362 50.7412 43.1787C48.9911 47.6212 47.1064 52.5349 45.0871 57.9197C43.0677 63.17 41.0484 68.4202 39.0291 73.6705H49.5296C57.4722 73.6705 63.1263 71.9204 66.4919 68.4202C69.8574 64.9201 71.5402 59.1986 71.5402 51.256V16.1198C68.7131 16.2544 66.0207 16.9275 63.4629 18.1391C61.0397 19.3507 59.0204 21.9758 57.4049 26.0144ZM107.888 97.7004C106.811 93.931 105.734 90.1616 104.657 86.3922C103.715 82.4882 102.705 78.6514 101.628 74.882H94.5605C86.6178 74.882 80.9637 76.5648 77.5982 79.9304C74.3672 83.2959 72.7518 88.8827 72.7518 96.6907V116.884C76.2519 114.595 79.7521 112.711 83.2523 111.23C86.7524 109.614 90.3872 108.807 94.1566 108.807C97.2529 108.807 99.6761 109.143 101.426 109.816C103.311 110.355 104.926 110.624 106.273 110.624C106.946 110.624 107.417 110.557 107.686 110.422C108.359 110.018 108.763 109.345 108.898 108.403C109.167 107.326 109.234 106.182 109.1 104.97C109.1 103.758 108.965 102.479 108.696 101.133C108.426 99.787 108.157 98.6427 107.888 97.7004ZM94.5605 73.6705H101.224C98.5318 63.9777 96.0413 55.0254 93.7527 46.8135C91.4642 38.6016 89.5795 31.9378 88.0986 26.8222C87.1563 23.5913 85.5408 21.0335 83.2523 19.1488C80.9637 17.2641 77.4635 16.2544 72.7518 16.1198V51.256C72.7518 58.9294 74.4345 64.5835 77.8001 68.2183C81.3002 71.8531 86.887 73.6705 94.5605 73.6705Z" fill="white"/>
</g>
<defs>
<clipPath id="clip0_62_7766">
<rect width="173" height="173" fill="white"/>
</clipPath>
</defs>
</svg>
