<svg width="32" height="32" viewBox="0 0 32 32" fill="none" xmlns="http://www.w3.org/2000/svg">
<g clip-path="url(#clip0_62_7766)">
<rect width="32" height="32" rx="6.4" fill="black"/>
<path d="M19.097 29.4956H20.367C20.8899 29.4956 21.3007 29.4334 21.5996 29.3089C21.9233 29.1844 22.1474 29.0349 22.2719 28.8606C22.4213 28.6614 22.496 28.4373 22.496 28.1883C22.5209 27.9393 22.5084 27.7027 22.4586 27.4786C22.3341 27.0802 22.2096 26.632 22.0851 26.134C21.9855 25.6359 21.8361 25.113 21.6369 24.5652C21.3381 23.6688 20.865 22.8719 20.2175 22.1747C19.5701 21.4775 18.6488 21.1289 17.4535 21.1289C16.7065 21.1289 16.0093 21.353 15.3618 21.8012C14.7393 22.2245 14.1417 22.7723 13.569 23.4447C12.9962 24.0921 12.436 24.8018 11.8881 25.5737C11.3652 26.3207 10.8049 27.0304 10.2073 27.7027C9.63459 28.3502 9.02451 28.898 8.37708 29.3462C7.72965 29.7695 7.00752 29.9812 6.21069 29.9812C5.23955 29.9812 4.43026 29.6824 3.78283 29.0847C3.1354 28.4871 2.81169 27.5284 2.81169 26.2087C2.81169 25.4367 2.92374 24.5901 3.14785 23.6688C3.39687 22.7225 3.70813 21.7265 4.08165 20.6806C4.45516 19.6099 4.87848 18.4893 5.3516 17.319C5.84962 16.1486 6.33519 14.9534 6.80831 13.7332C7.03242 13.1605 7.29389 12.4882 7.5927 11.7162C7.89151 10.9443 8.20277 10.1475 8.52649 9.32574C8.8502 8.504 9.16147 7.70717 9.46028 6.93524C9.78399 6.1384 10.0579 5.45362 10.282 4.8809C10.4065 4.53228 10.4937 4.27082 10.5435 4.09651C10.5933 3.8973 10.6182 3.6981 10.6182 3.49889C10.6182 3.05067 10.3692 2.82656 9.87115 2.82656H7.10713C7.00752 2.82656 6.95772 2.7892 6.95772 2.7145V2.67715C6.95772 2.62735 7.00752 2.60245 7.10713 2.60245H22.0478C22.1225 2.60245 22.1598 2.62735 22.1598 2.67715V2.7145C22.1598 2.7892 22.1225 2.82656 22.0478 2.82656H19.8067C19.2589 2.82656 18.9102 3.00086 18.7608 3.34948C18.6114 3.69809 18.6114 4.13386 18.7608 4.65679C19.8067 8.54135 20.865 12.401 21.9357 16.2358C23.0065 20.0706 24.1644 23.9053 25.4094 27.7401C25.6086 28.3626 25.8576 28.8108 26.1565 29.0847C26.4802 29.3587 27.028 29.4956 27.7999 29.4956H28.9578C29.0325 29.4956 29.0699 29.5205 29.0699 29.5703V29.645C29.0699 29.6948 29.0325 29.7197 28.9578 29.7197H19.097C19.0472 29.7197 19.0223 29.6948 19.0223 29.645V29.5703C19.0223 29.5205 19.0472 29.4956 19.097 29.4956ZM9.16147 14.3309H7.14448C6.94527 14.8538 6.69626 15.4888 6.39745 16.2358C6.09863 16.9828 5.79982 17.7672 5.50101 18.5889C5.2271 19.4107 4.97808 20.2324 4.75397 21.0541C4.55477 21.851 4.45516 22.5607 4.45516 23.1832C4.45516 24.2041 4.74152 24.9387 5.31425 25.3869C5.88697 25.8103 6.52195 26.0219 7.21918 26.0219C7.6923 26.0219 8.16542 25.9099 8.63854 25.6858C9.11166 25.4367 9.59724 25.1255 10.0953 24.752C10.5933 24.3784 11.1038 23.9676 11.6267 23.5194C12.1496 23.0711 12.685 22.6478 13.2328 22.2494V18.3648C13.2328 16.9455 12.9091 15.9245 12.2617 15.302C11.6142 14.6546 10.5808 14.3309 9.16147 14.3309ZM10.6182 5.29176C10.5435 5.44117 10.3941 5.80224 10.17 6.37496C9.97075 6.94769 9.70929 7.64492 9.38558 8.46665C9.06186 9.28839 8.71325 10.1973 8.33973 11.1933C7.96621 12.1645 7.5927 13.1356 7.21918 14.1067H9.16147C10.6306 14.1067 11.6765 13.783 12.299 13.1356C12.9215 12.4882 13.2328 11.4299 13.2328 9.96072V3.46153C12.7099 3.48644 12.2118 3.61094 11.7387 3.83505C11.2905 4.05916 10.917 4.54473 10.6182 5.29176ZM19.9561 18.5516C19.7569 17.8544 19.5577 17.1571 19.3585 16.4599C19.1842 15.7378 18.9974 15.0281 18.7982 14.3309H17.4909C16.0217 14.3309 14.9759 14.6421 14.3533 15.2646C13.7557 15.8872 13.4569 16.9206 13.4569 18.3648V22.1C14.1043 21.6767 14.7518 21.3281 15.3992 21.0541C16.0466 20.7553 16.7189 20.6059 17.4162 20.6059C17.9889 20.6059 18.4371 20.6682 18.7608 20.7927C19.1094 20.8923 19.4083 20.9421 19.6573 20.9421C19.7818 20.9421 19.8689 20.9296 19.9187 20.9047C20.0432 20.83 20.1179 20.7055 20.1428 20.5312C20.1926 20.332 20.2051 20.1204 20.1802 19.8962C20.1802 19.6721 20.1553 19.4356 20.1055 19.1866C20.0557 18.9376 20.0059 18.7259 19.9561 18.5516ZM17.4909 14.1067H18.7235C18.2255 12.3139 17.7648 10.6579 17.3415 9.13898C16.9182 7.62001 16.5695 6.38741 16.2956 5.44117C16.1213 4.84354 15.8225 4.37042 15.3992 4.02181C14.9759 3.67319 14.3284 3.48644 13.4569 3.46153V9.96072C13.4569 11.3801 13.7682 12.4259 14.3907 13.0983C15.0381 13.7706 16.0715 14.1067 17.4909 14.1067Z" fill="white"/>
</g>
<defs>
<clipPath id="clip0_62_7766">
<rect width="32" height="32" fill="white"/>
</clipPath>
</defs>
</svg>
